<mxfile host="drawio-plugin" modified="2024-11-08T02:15:31.291Z" agent="Mozilla/5.0 (Macintosh; Intel Mac OS X 10_15_7) AppleWebKit/537.36 (KHTML, like Gecko) Chrome/122.0.0.0 Safari/537.36" etag="JUTkWU-0V-rspg7PDhGK" version="22.1.22" type="embed">
  <diagram id="23iRSUPoRavnBvh4doch" name="Page-1">
    <mxGraphModel dx="1882" dy="2671" grid="1" gridSize="10" guides="1" tooltips="1" connect="1" arrows="1" fold="1" page="1" pageScale="1" pageWidth="827" pageHeight="1169" math="0" shadow="0">
      <root>
        <mxCell id="0" />
        <mxCell id="1" parent="0" />
        <mxCell id="160" value="Order Screen" style="swimlane;whiteSpace=wrap;html=1;" vertex="1" parent="1">
          <mxGeometry x="250" y="50" width="170" height="230" as="geometry" />
        </mxCell>
        <mxCell id="161" value="&lt;font style=&quot;font-size: 14px;&quot;&gt;Add Sandwich&lt;/font&gt;" style="text;strokeColor=none;fillColor=none;align=center;verticalAlign=middle;spacingLeft=4;spacingRight=4;overflow=hidden;points=[[0,0.5],[1,0.5]];portConstraint=eastwest;rotatable=0;whiteSpace=wrap;html=1;" vertex="1" parent="160">
          <mxGeometry y="30" width="160" height="40" as="geometry" />
        </mxCell>
        <mxCell id="162" value="&lt;font style=&quot;font-size: 14px;&quot;&gt;Add Drink&lt;/font&gt;" style="text;strokeColor=none;fillColor=none;align=center;verticalAlign=middle;spacingLeft=4;spacingRight=4;overflow=hidden;points=[[0,0.5],[1,0.5]];portConstraint=eastwest;rotatable=0;whiteSpace=wrap;html=1;" vertex="1" parent="160">
          <mxGeometry y="70" width="160" height="40" as="geometry" />
        </mxCell>
        <mxCell id="163" value="&lt;font style=&quot;font-size: 14px;&quot;&gt;Add Chips&lt;/font&gt;" style="text;strokeColor=none;fillColor=none;align=center;verticalAlign=middle;spacingLeft=4;spacingRight=4;overflow=hidden;points=[[0,0.5],[1,0.5]];portConstraint=eastwest;rotatable=0;whiteSpace=wrap;html=1;" vertex="1" parent="160">
          <mxGeometry y="110" width="160" height="40" as="geometry" />
        </mxCell>
        <mxCell id="164" value="&lt;font style=&quot;font-size: 14px;&quot;&gt;Checkout&lt;/font&gt;" style="text;strokeColor=none;fillColor=none;align=center;verticalAlign=middle;spacingLeft=4;spacingRight=4;overflow=hidden;points=[[0,0.5],[1,0.5]];portConstraint=eastwest;rotatable=0;whiteSpace=wrap;html=1;" vertex="1" parent="160">
          <mxGeometry y="150" width="160" height="40" as="geometry" />
        </mxCell>
        <mxCell id="165" value="&lt;font style=&quot;font-size: 14px;&quot;&gt;Cnacel Order&lt;/font&gt;" style="text;strokeColor=none;fillColor=none;align=center;verticalAlign=middle;spacingLeft=4;spacingRight=4;overflow=hidden;points=[[0,0.5],[1,0.5]];portConstraint=eastwest;rotatable=0;whiteSpace=wrap;html=1;" vertex="1" parent="160">
          <mxGeometry x="5" y="190" width="160" height="40" as="geometry" />
        </mxCell>
        <mxCell id="166" value="Home Screen" style="swimlane;whiteSpace=wrap;html=1;" vertex="1" parent="1">
          <mxGeometry x="50" y="50" width="160" height="110" as="geometry" />
        </mxCell>
        <mxCell id="167" value="&lt;font style=&quot;font-size: 14px;&quot;&gt;New Order&lt;/font&gt;" style="text;strokeColor=none;fillColor=none;align=center;verticalAlign=middle;spacingLeft=4;spacingRight=4;overflow=hidden;points=[[0,0.5],[1,0.5]];portConstraint=eastwest;rotatable=0;whiteSpace=wrap;html=1;" vertex="1" parent="166">
          <mxGeometry y="30" width="160" height="40" as="geometry" />
        </mxCell>
        <mxCell id="168" value="&lt;font style=&quot;font-size: 14px;&quot;&gt;Exit&lt;/font&gt;" style="text;strokeColor=none;fillColor=none;align=center;verticalAlign=middle;spacingLeft=4;spacingRight=4;overflow=hidden;points=[[0,0.5],[1,0.5]];portConstraint=eastwest;rotatable=0;whiteSpace=wrap;html=1;" vertex="1" parent="166">
          <mxGeometry y="70" width="160" height="40" as="geometry" />
        </mxCell>
        <mxCell id="169" style="edgeStyle=orthogonalEdgeStyle;rounded=0;orthogonalLoop=1;jettySize=auto;html=1;entryX=0;entryY=0.074;entryDx=0;entryDy=0;entryPerimeter=0;" edge="1" parent="1" source="167" target="160">
          <mxGeometry relative="1" as="geometry" />
        </mxCell>
        <mxCell id="170" value="Add Sandwich" style="swimlane;whiteSpace=wrap;html=1;" vertex="1" parent="1">
          <mxGeometry x="450" y="50" width="160" height="230" as="geometry" />
        </mxCell>
        <mxCell id="171" value="&lt;span style=&quot;font-size: 14px;&quot;&gt;Select your bread&lt;/span&gt;" style="text;strokeColor=none;fillColor=none;align=center;verticalAlign=middle;spacingLeft=4;spacingRight=4;overflow=hidden;points=[[0,0.5],[1,0.5]];portConstraint=eastwest;rotatable=0;whiteSpace=wrap;html=1;" vertex="1" parent="170">
          <mxGeometry x="20" y="30" width="120" height="40" as="geometry" />
        </mxCell>
        <mxCell id="172" value="&lt;font style=&quot;font-size: 14px;&quot;&gt;Sandwich Size&lt;/font&gt;" style="text;strokeColor=none;fillColor=none;align=center;verticalAlign=middle;spacingLeft=4;spacingRight=4;overflow=hidden;points=[[0,0.5],[1,0.5]];portConstraint=eastwest;rotatable=0;whiteSpace=wrap;html=1;" vertex="1" parent="170">
          <mxGeometry y="70" width="160" height="40" as="geometry" />
        </mxCell>
        <mxCell id="173" value="&lt;font style=&quot;font-size: 14px;&quot;&gt;Toppings&lt;/font&gt;" style="text;strokeColor=none;fillColor=none;align=center;verticalAlign=middle;spacingLeft=4;spacingRight=4;overflow=hidden;points=[[0,0.5],[1,0.5]];portConstraint=eastwest;rotatable=0;whiteSpace=wrap;html=1;" vertex="1" parent="170">
          <mxGeometry x="20" y="110" width="120" height="40" as="geometry" />
        </mxCell>
        <mxCell id="174" value="&lt;font style=&quot;font-size: 14px;&quot;&gt;BLT&lt;/font&gt;" style="text;strokeColor=none;fillColor=none;align=center;verticalAlign=middle;spacingLeft=4;spacingRight=4;overflow=hidden;points=[[0,0.5],[1,0.5]];portConstraint=eastwest;rotatable=0;whiteSpace=wrap;html=1;" vertex="1" parent="170">
          <mxGeometry x="20" y="150" width="120" height="40" as="geometry" />
        </mxCell>
        <mxCell id="175" value="&lt;font style=&quot;font-size: 14px;&quot;&gt;Philly Cheese Steak&lt;/font&gt;" style="text;strokeColor=none;fillColor=none;align=center;verticalAlign=middle;spacingLeft=4;spacingRight=4;overflow=hidden;points=[[0,0.5],[1,0.5]];portConstraint=eastwest;rotatable=0;whiteSpace=wrap;html=1;" vertex="1" parent="170">
          <mxGeometry x="20" y="190" width="120" height="40" as="geometry" />
        </mxCell>
        <mxCell id="176" style="edgeStyle=orthogonalEdgeStyle;rounded=0;orthogonalLoop=1;jettySize=auto;html=1;entryX=-0.012;entryY=0.113;entryDx=0;entryDy=0;entryPerimeter=0;" edge="1" parent="1" source="161" target="170">
          <mxGeometry relative="1" as="geometry" />
        </mxCell>
        <mxCell id="177" value="Toppings" style="swimlane;whiteSpace=wrap;html=1;" vertex="1" parent="1">
          <mxGeometry x="760" y="85" width="160" height="190" as="geometry" />
        </mxCell>
        <mxCell id="178" value="&lt;span style=&quot;font-size: 14px;&quot;&gt;Meat&lt;/span&gt;" style="text;strokeColor=none;fillColor=none;align=center;verticalAlign=middle;spacingLeft=4;spacingRight=4;overflow=hidden;points=[[0,0.5],[1,0.5]];portConstraint=eastwest;rotatable=0;whiteSpace=wrap;html=1;perimeterSpacing=0;" vertex="1" parent="177">
          <mxGeometry x="55" y="30" width="50" height="40" as="geometry" />
        </mxCell>
        <mxCell id="179" value="&lt;font style=&quot;font-size: 14px;&quot;&gt;Cheese&lt;/font&gt;" style="text;strokeColor=none;fillColor=none;align=center;verticalAlign=middle;spacingLeft=4;spacingRight=4;overflow=hidden;points=[[0,0.5],[1,0.5]];portConstraint=eastwest;rotatable=0;whiteSpace=wrap;html=1;" vertex="1" parent="177">
          <mxGeometry x="45" y="70" width="70" height="40" as="geometry" />
        </mxCell>
        <mxCell id="180" style="edgeStyle=orthogonalEdgeStyle;rounded=0;orthogonalLoop=1;jettySize=auto;html=1;" edge="1" parent="177" source="181">
          <mxGeometry relative="1" as="geometry">
            <mxPoint x="-90" y="225" as="targetPoint" />
          </mxGeometry>
        </mxCell>
        <mxCell id="181" value="&lt;font style=&quot;font-size: 14px;&quot;&gt;Other Topings&lt;/font&gt;" style="text;strokeColor=none;fillColor=none;align=center;verticalAlign=middle;spacingLeft=4;spacingRight=4;overflow=hidden;points=[[0,0.5],[1,0.5]];portConstraint=eastwest;rotatable=0;whiteSpace=wrap;html=1;" vertex="1" parent="177">
          <mxGeometry x="25" y="110" width="110" height="40" as="geometry" />
        </mxCell>
        <mxCell id="182" value="&lt;font style=&quot;font-size: 14px;&quot;&gt;Select Sauces&lt;/font&gt;" style="text;strokeColor=none;fillColor=none;align=center;verticalAlign=middle;spacingLeft=4;spacingRight=4;overflow=hidden;points=[[0,0.5],[1,0.5]];portConstraint=eastwest;rotatable=0;whiteSpace=wrap;html=1;" vertex="1" parent="177">
          <mxGeometry x="30" y="150" width="100" height="40" as="geometry" />
        </mxCell>
        <mxCell id="183" style="edgeStyle=orthogonalEdgeStyle;rounded=0;orthogonalLoop=1;jettySize=auto;html=1;entryX=0;entryY=0.105;entryDx=0;entryDy=0;entryPerimeter=0;" edge="1" parent="1" source="173" target="177">
          <mxGeometry relative="1" as="geometry">
            <Array as="points">
              <mxPoint x="640" y="180" />
              <mxPoint x="640" y="105" />
            </Array>
          </mxGeometry>
        </mxCell>
        <mxCell id="184" value="Meat" style="swimlane;whiteSpace=wrap;html=1;" vertex="1" parent="1">
          <mxGeometry x="770" y="-240" width="160" height="270" as="geometry" />
        </mxCell>
        <mxCell id="185" value="&lt;span style=&quot;font-size: 14px;&quot;&gt;Steak&lt;/span&gt;" style="text;strokeColor=none;fillColor=none;align=center;verticalAlign=middle;spacingLeft=4;spacingRight=4;overflow=hidden;points=[[0,0.5],[1,0.5]];portConstraint=eastwest;rotatable=0;whiteSpace=wrap;html=1;" vertex="1" parent="184">
          <mxGeometry y="30" width="160" height="40" as="geometry" />
        </mxCell>
        <mxCell id="186" value="&lt;font style=&quot;font-size: 14px;&quot;&gt;Ham&lt;/font&gt;" style="text;strokeColor=none;fillColor=none;align=center;verticalAlign=middle;spacingLeft=4;spacingRight=4;overflow=hidden;points=[[0,0.5],[1,0.5]];portConstraint=eastwest;rotatable=0;whiteSpace=wrap;html=1;" vertex="1" parent="184">
          <mxGeometry y="70" width="160" height="40" as="geometry" />
        </mxCell>
        <mxCell id="187" value="&lt;font style=&quot;font-size: 14px;&quot;&gt;Salami&lt;/font&gt;" style="text;strokeColor=none;fillColor=none;align=center;verticalAlign=middle;spacingLeft=4;spacingRight=4;overflow=hidden;points=[[0,0.5],[1,0.5]];portConstraint=eastwest;rotatable=0;whiteSpace=wrap;html=1;" vertex="1" parent="184">
          <mxGeometry y="110" width="160" height="40" as="geometry" />
        </mxCell>
        <mxCell id="188" value="&lt;font style=&quot;font-size: 14px;&quot;&gt;Roast Beef&lt;/font&gt;" style="text;strokeColor=none;fillColor=none;align=center;verticalAlign=middle;spacingLeft=4;spacingRight=4;overflow=hidden;points=[[0,0.5],[1,0.5]];portConstraint=eastwest;rotatable=0;whiteSpace=wrap;html=1;" vertex="1" parent="184">
          <mxGeometry y="150" width="160" height="40" as="geometry" />
        </mxCell>
        <mxCell id="189" value="&lt;span style=&quot;font-size: 14px;&quot;&gt;Chicken&lt;/span&gt;" style="text;strokeColor=none;fillColor=none;align=center;verticalAlign=middle;spacingLeft=4;spacingRight=4;overflow=hidden;points=[[0,0.5],[1,0.5]];portConstraint=eastwest;rotatable=0;whiteSpace=wrap;html=1;" vertex="1" parent="184">
          <mxGeometry y="190" width="160" height="40" as="geometry" />
        </mxCell>
        <mxCell id="190" value="&lt;span style=&quot;font-size: 14px;&quot;&gt;Bacon&lt;/span&gt;" style="text;strokeColor=none;fillColor=none;align=center;verticalAlign=middle;spacingLeft=4;spacingRight=4;overflow=hidden;points=[[0,0.5],[1,0.5]];portConstraint=eastwest;rotatable=0;whiteSpace=wrap;html=1;" vertex="1" parent="184">
          <mxGeometry y="230" width="160" height="40" as="geometry" />
        </mxCell>
        <mxCell id="191" style="edgeStyle=orthogonalEdgeStyle;rounded=0;orthogonalLoop=1;jettySize=auto;html=1;" edge="1" parent="1" source="178">
          <mxGeometry relative="1" as="geometry">
            <mxPoint x="840" y="40" as="targetPoint" />
          </mxGeometry>
        </mxCell>
        <mxCell id="192" value="Cheese" style="swimlane;whiteSpace=wrap;html=1;" vertex="1" parent="1">
          <mxGeometry x="970" y="110" width="160" height="190" as="geometry" />
        </mxCell>
        <mxCell id="193" value="&lt;span style=&quot;font-size: 14px;&quot;&gt;American&lt;/span&gt;" style="text;strokeColor=none;fillColor=none;align=center;verticalAlign=middle;spacingLeft=4;spacingRight=4;overflow=hidden;points=[[0,0.5],[1,0.5]];portConstraint=eastwest;rotatable=0;whiteSpace=wrap;html=1;perimeterSpacing=0;" vertex="1" parent="192">
          <mxGeometry x="20" y="30" width="120" height="40" as="geometry" />
        </mxCell>
        <mxCell id="194" value="&lt;font style=&quot;font-size: 14px;&quot;&gt;Provolone&lt;/font&gt;" style="text;strokeColor=none;fillColor=none;align=center;verticalAlign=middle;spacingLeft=4;spacingRight=4;overflow=hidden;points=[[0,0.5],[1,0.5]];portConstraint=eastwest;rotatable=0;whiteSpace=wrap;html=1;" vertex="1" parent="192">
          <mxGeometry y="70" width="160" height="40" as="geometry" />
        </mxCell>
        <mxCell id="195" value="&lt;span style=&quot;font-size: 14px;&quot;&gt;Cheddar&lt;/span&gt;" style="text;strokeColor=none;fillColor=none;align=center;verticalAlign=middle;spacingLeft=4;spacingRight=4;overflow=hidden;points=[[0,0.5],[1,0.5]];portConstraint=eastwest;rotatable=0;whiteSpace=wrap;html=1;" vertex="1" parent="192">
          <mxGeometry y="110" width="160" height="40" as="geometry" />
        </mxCell>
        <mxCell id="196" value="&lt;font style=&quot;font-size: 14px;&quot;&gt;Swiss&lt;/font&gt;" style="text;strokeColor=none;fillColor=none;align=center;verticalAlign=middle;spacingLeft=4;spacingRight=4;overflow=hidden;points=[[0,0.5],[1,0.5]];portConstraint=eastwest;rotatable=0;whiteSpace=wrap;html=1;" vertex="1" parent="192">
          <mxGeometry y="150" width="160" height="40" as="geometry" />
        </mxCell>
        <mxCell id="197" style="edgeStyle=orthogonalEdgeStyle;rounded=0;orthogonalLoop=1;jettySize=auto;html=1;entryX=-0.01;entryY=0.081;entryDx=0;entryDy=0;entryPerimeter=0;" edge="1" parent="1" source="179" target="192">
          <mxGeometry relative="1" as="geometry">
            <mxPoint x="950" y="175" as="targetPoint" />
          </mxGeometry>
        </mxCell>
        <mxCell id="198" value="Regular Toppings" style="swimlane;whiteSpace=wrap;html=1;" vertex="1" parent="1">
          <mxGeometry x="590" y="315" width="160" height="310" as="geometry" />
        </mxCell>
        <mxCell id="199" value="&lt;span style=&quot;font-size: 14px;&quot;&gt;Lettuce&lt;/span&gt;" style="text;strokeColor=none;fillColor=none;align=center;verticalAlign=middle;spacingLeft=4;spacingRight=4;overflow=hidden;points=[[0,0.5],[1,0.5]];portConstraint=eastwest;rotatable=0;whiteSpace=wrap;html=1;" vertex="1" parent="198">
          <mxGeometry y="30" width="160" height="30" as="geometry" />
        </mxCell>
        <mxCell id="200" value="&lt;font style=&quot;font-size: 14px;&quot;&gt;Peppers&lt;/font&gt;" style="text;strokeColor=none;fillColor=none;align=center;verticalAlign=middle;spacingLeft=4;spacingRight=4;overflow=hidden;points=[[0,0.5],[1,0.5]];portConstraint=eastwest;rotatable=0;whiteSpace=wrap;html=1;" vertex="1" parent="198">
          <mxGeometry y="60" width="160" height="30" as="geometry" />
        </mxCell>
        <mxCell id="201" value="&lt;span style=&quot;font-size: 14px;&quot;&gt;Onions&lt;/span&gt;" style="text;strokeColor=none;fillColor=none;align=center;verticalAlign=middle;spacingLeft=4;spacingRight=4;overflow=hidden;points=[[0,0.5],[1,0.5]];portConstraint=eastwest;rotatable=0;whiteSpace=wrap;html=1;" vertex="1" parent="198">
          <mxGeometry y="90" width="160" height="30" as="geometry" />
        </mxCell>
        <mxCell id="202" value="&lt;font style=&quot;font-size: 14px;&quot;&gt;Tomatoes&lt;/font&gt;" style="text;strokeColor=none;fillColor=none;align=center;verticalAlign=middle;spacingLeft=4;spacingRight=4;overflow=hidden;points=[[0,0.5],[1,0.5]];portConstraint=eastwest;rotatable=0;whiteSpace=wrap;html=1;" vertex="1" parent="198">
          <mxGeometry y="120" width="160" height="30" as="geometry" />
        </mxCell>
        <mxCell id="203" value="&lt;span style=&quot;font-size: 14px;&quot;&gt;Jalepenos&lt;/span&gt;" style="text;strokeColor=none;fillColor=none;align=center;verticalAlign=middle;spacingLeft=4;spacingRight=4;overflow=hidden;points=[[0,0.5],[1,0.5]];portConstraint=eastwest;rotatable=0;whiteSpace=wrap;html=1;" vertex="1" parent="198">
          <mxGeometry y="150" width="160" height="30" as="geometry" />
        </mxCell>
        <mxCell id="204" value="&lt;span style=&quot;font-size: 14px;&quot;&gt;Cucumbers&lt;/span&gt;" style="text;strokeColor=none;fillColor=none;align=center;verticalAlign=middle;spacingLeft=4;spacingRight=4;overflow=hidden;points=[[0,0.5],[1,0.5]];portConstraint=eastwest;rotatable=0;whiteSpace=wrap;html=1;" vertex="1" parent="198">
          <mxGeometry y="180" width="160" height="30" as="geometry" />
        </mxCell>
        <mxCell id="205" value="&lt;span style=&quot;font-size: 14px;&quot;&gt;Pickles&lt;/span&gt;&lt;span style=&quot;color: rgba(0, 0, 0, 0); font-family: monospace; font-size: 0px; text-align: start; text-wrap-mode: nowrap;&quot;&gt;%3CmxGraphModel%3E%3Croot%3E%3CmxCell%20id%3D%220%22%2F%3E%3CmxCell%20id%3D%221%22%20parent%3D%220%22%2F%3E%3CmxCell%20id%3D%222%22%20value%3D%22%26lt%3Bspan%20style%3D%26quot%3Bfont-size%3A%2014px%3B%26quot%3B%26gt%3BCucumbers%26lt%3B%2Fspan%26gt%3B%22%20style%3D%22text%3BstrokeColor%3Dnone%3BfillColor%3Dnone%3Balign%3Dcenter%3BverticalAlign%3Dmiddle%3BspacingLeft%3D4%3BspacingRight%3D4%3Boverflow%3Dhidden%3Bpoints%3D%5B%5B0%2C0.5%5D%2C%5B1%2C0.5%5D%5D%3BportConstraint%3Deastwest%3Brotatable%3D0%3BwhiteSpace%3Dwrap%3Bhtml%3D1%3B%22%20vertex%3D%221%22%20parent%3D%221%22%3E%3CmxGeometry%20x%3D%22540%22%20y%3D%22470%22%20width%3D%22160%22%20height%3D%2230%22%20as%3D%22geometry%22%2F%3E%3C%2FmxCell%3E%3C%2Froot%3E%3C%2FmxGraphModel%3E&lt;/span&gt;" style="text;strokeColor=none;fillColor=none;align=center;verticalAlign=middle;spacingLeft=4;spacingRight=4;overflow=hidden;points=[[0,0.5],[1,0.5]];portConstraint=eastwest;rotatable=0;whiteSpace=wrap;html=1;" vertex="1" parent="198">
          <mxGeometry y="210" width="160" height="30" as="geometry" />
        </mxCell>
        <mxCell id="206" value="&lt;span style=&quot;font-size: 14px;&quot;&gt;Guacamole&lt;/span&gt;" style="text;strokeColor=none;fillColor=none;align=center;verticalAlign=middle;spacingLeft=4;spacingRight=4;overflow=hidden;points=[[0,0.5],[1,0.5]];portConstraint=eastwest;rotatable=0;whiteSpace=wrap;html=1;" vertex="1" parent="198">
          <mxGeometry y="240" width="160" height="30" as="geometry" />
        </mxCell>
        <mxCell id="207" value="&lt;span style=&quot;font-size: 14px;&quot;&gt;Mushrooms&lt;/span&gt;" style="text;strokeColor=none;fillColor=none;align=center;verticalAlign=middle;spacingLeft=4;spacingRight=4;overflow=hidden;points=[[0,0.5],[1,0.5]];portConstraint=eastwest;rotatable=0;whiteSpace=wrap;html=1;" vertex="1" parent="198">
          <mxGeometry y="270" width="160" height="30" as="geometry" />
        </mxCell>
        <mxCell id="208" value="Sauces" style="swimlane;whiteSpace=wrap;html=1;" vertex="1" parent="1">
          <mxGeometry x="800" y="395" width="160" height="210" as="geometry" />
        </mxCell>
        <mxCell id="209" value="&lt;span style=&quot;font-size: 14px;&quot;&gt;Mayo&lt;/span&gt;" style="text;strokeColor=none;fillColor=none;align=center;verticalAlign=middle;spacingLeft=4;spacingRight=4;overflow=hidden;points=[[0,0.5],[1,0.5]];portConstraint=eastwest;rotatable=0;whiteSpace=wrap;html=1;perimeterSpacing=0;" vertex="1" parent="208">
          <mxGeometry x="20" y="30" width="120" height="30" as="geometry" />
        </mxCell>
        <mxCell id="210" value="&lt;font style=&quot;font-size: 14px;&quot;&gt;Mustard&lt;/font&gt;" style="text;strokeColor=none;fillColor=none;align=center;verticalAlign=middle;spacingLeft=4;spacingRight=4;overflow=hidden;points=[[0,0.5],[1,0.5]];portConstraint=eastwest;rotatable=0;whiteSpace=wrap;html=1;" vertex="1" parent="208">
          <mxGeometry y="60" width="160" height="30" as="geometry" />
        </mxCell>
        <mxCell id="211" value="&lt;span style=&quot;font-size: 14px;&quot;&gt;Ketchup&lt;/span&gt;" style="text;strokeColor=none;fillColor=none;align=center;verticalAlign=middle;spacingLeft=4;spacingRight=4;overflow=hidden;points=[[0,0.5],[1,0.5]];portConstraint=eastwest;rotatable=0;whiteSpace=wrap;html=1;" vertex="1" parent="208">
          <mxGeometry y="90" width="160" height="30" as="geometry" />
        </mxCell>
        <mxCell id="212" value="&lt;font style=&quot;font-size: 14px;&quot;&gt;Ranch&lt;/font&gt;" style="text;strokeColor=none;fillColor=none;align=center;verticalAlign=middle;spacingLeft=4;spacingRight=4;overflow=hidden;points=[[0,0.5],[1,0.5]];portConstraint=eastwest;rotatable=0;whiteSpace=wrap;html=1;" vertex="1" parent="208">
          <mxGeometry y="120" width="160" height="30" as="geometry" />
        </mxCell>
        <mxCell id="213" value="&lt;font style=&quot;font-size: 14px;&quot;&gt;Thousand Islands&lt;/font&gt;" style="text;strokeColor=none;fillColor=none;align=center;verticalAlign=middle;spacingLeft=4;spacingRight=4;overflow=hidden;points=[[0,0.5],[1,0.5]];portConstraint=eastwest;rotatable=0;whiteSpace=wrap;html=1;" vertex="1" parent="208">
          <mxGeometry y="150" width="160" height="30" as="geometry" />
        </mxCell>
        <mxCell id="214" value="&lt;font style=&quot;font-size: 14px;&quot;&gt;Vinaigrette&lt;/font&gt;" style="text;strokeColor=none;fillColor=none;align=center;verticalAlign=middle;spacingLeft=4;spacingRight=4;overflow=hidden;points=[[0,0.5],[1,0.5]];portConstraint=eastwest;rotatable=0;whiteSpace=wrap;html=1;" vertex="1" parent="208">
          <mxGeometry y="180" width="160" height="30" as="geometry" />
        </mxCell>
        <mxCell id="215" style="edgeStyle=orthogonalEdgeStyle;rounded=0;orthogonalLoop=1;jettySize=auto;html=1;entryX=0.5;entryY=0;entryDx=0;entryDy=0;" edge="1" parent="1" source="182" target="208">
          <mxGeometry relative="1" as="geometry" />
        </mxCell>
        <mxCell id="216" value="Bread" style="swimlane;whiteSpace=wrap;html=1;" vertex="1" parent="1">
          <mxGeometry x="440" y="-200" width="160" height="190" as="geometry" />
        </mxCell>
        <mxCell id="217" value="&lt;span style=&quot;font-size: 14px;&quot;&gt;White&lt;/span&gt;" style="text;strokeColor=none;fillColor=none;align=center;verticalAlign=middle;spacingLeft=4;spacingRight=4;overflow=hidden;points=[[0,0.5],[1,0.5]];portConstraint=eastwest;rotatable=0;whiteSpace=wrap;html=1;perimeterSpacing=0;" vertex="1" parent="216">
          <mxGeometry x="20" y="30" width="120" height="40" as="geometry" />
        </mxCell>
        <mxCell id="218" value="&lt;font style=&quot;font-size: 14px;&quot;&gt;Wheat&lt;/font&gt;" style="text;strokeColor=none;fillColor=none;align=center;verticalAlign=middle;spacingLeft=4;spacingRight=4;overflow=hidden;points=[[0,0.5],[1,0.5]];portConstraint=eastwest;rotatable=0;whiteSpace=wrap;html=1;" vertex="1" parent="216">
          <mxGeometry y="70" width="160" height="40" as="geometry" />
        </mxCell>
        <mxCell id="219" value="&lt;span style=&quot;font-size: 14px;&quot;&gt;Rye&lt;/span&gt;" style="text;strokeColor=none;fillColor=none;align=center;verticalAlign=middle;spacingLeft=4;spacingRight=4;overflow=hidden;points=[[0,0.5],[1,0.5]];portConstraint=eastwest;rotatable=0;whiteSpace=wrap;html=1;" vertex="1" parent="216">
          <mxGeometry y="110" width="160" height="40" as="geometry" />
        </mxCell>
        <mxCell id="220" value="&lt;font style=&quot;font-size: 14px;&quot;&gt;Wrap&lt;/font&gt;" style="text;strokeColor=none;fillColor=none;align=center;verticalAlign=middle;spacingLeft=4;spacingRight=4;overflow=hidden;points=[[0,0.5],[1,0.5]];portConstraint=eastwest;rotatable=0;whiteSpace=wrap;html=1;" vertex="1" parent="216">
          <mxGeometry y="150" width="160" height="40" as="geometry" />
        </mxCell>
        <mxCell id="221" style="edgeStyle=orthogonalEdgeStyle;rounded=0;orthogonalLoop=1;jettySize=auto;html=1;entryX=0.563;entryY=1;entryDx=0;entryDy=0;entryPerimeter=0;" edge="1" parent="1" source="171" target="220">
          <mxGeometry relative="1" as="geometry" />
        </mxCell>
      </root>
    </mxGraphModel>
  </diagram>
</mxfile>
